<svg xmlns="http://www.w3.org/2000/svg" viewBox="0 0 340 340"><defs><linearGradient id="a" x1="13.441" x2="372.724" y1="365.077" y2="-95.699" gradientUnits="userSpaceOnUse"><stop offset="0" stop-color="#ff7e77"/><stop offset="1" stop-color="#ffca94"/></linearGradient><linearGradient id="b" x1="316.475" x2="282.476" y1="22.209" y2="66.806" gradientUnits="userSpaceOnUse"><stop offset="0" stop-color="#8080ad"/><stop offset="1" stop-color="#515180"/></linearGradient><linearGradient id="c" x1="114.498" x2="193.365" y1="269.926" y2="162.723" gradientUnits="userSpaceOnUse"><stop offset="0" stop-color="#a92646"/><stop offset="1" stop-color="#dc7263"/></linearGradient></defs><path fill="url(#a)" d="M293.529,28.324,318.42,43.449,319.6,61.127A22.084,22.084,0,0,1,315.772,75.1l-41.4,60.259a237.765,237.765,0,0,1,43-3.057,2.494,2.494,0,0,1,2.418,2.855A71.59,71.59,0,0,1,311.22,159.5l-37.742,41.772a24.707,24.707,0,0,0-6.335,15.076c-.626,10.377-1.945,27.84-4.208,38.875,0,0-15.761,34.154-37.4,59.388a1.956,1.956,0,0,1-3.437-1.188c-.328-7.281-1.241-21.2-3.64-31.093,0,0-42.622,23.147-77.327,37.937a1.962,1.962,0,0,1-2.725-1.81V290.805s-39.885,10.279-93.726,13.012a1.957,1.957,0,0,1-2.032-2.277c1.639-9.585,8.682-46.3,25.448-80.2a292.906,292.906,0,0,1-39.266,8.448,1.961,1.961,0,0,1-2.051-2.762c4.456-9.62,18.559-38.983,34.963-62.019,0,0-21.476-15.818-39.329-30.148a1.957,1.957,0,0,1,.453-3.329c8.1-3.46,31.042-13.051,48.194-18.2L57.326,98.54a1.961,1.961,0,0,1,1.312-3.294,402.437,402.437,0,0,1,53.833.584A51.654,51.654,0,0,0,141.2,89.685l23.614-12.922a24.53,24.53,0,0,1,11.091-3l47.528-1.34a21.71,21.71,0,0,0,11.122-3.435Z"/><path fill="url(#b)" d="M306.5,19.313c-7.947,3.145-17.339,8.333-21.082,30.693a4.467,4.467,0,0,0,5.2,5.133c7.166-1.292,19.24-4.432,27.8-11.69,0,0,1.769-10.467-1.489-19.522A7.977,7.977,0,0,0,306.5,19.313Z"/><path fill="#fff" d="M150.333,123.212s11-9.827,21.7-16.031a15.3,15.3,0,0,1,6.544-2,103.559,103.559,0,0,1,17.8.411A33.945,33.945,0,0,1,185.054,121a16.821,16.821,0,0,1-9.347,3.4A122.2,122.2,0,0,1,150.333,123.212Z"/><path fill="#fff" d="M196.38,105.6s11.769-.505,11.964,9.636a1.037,1.037,0,0,1-1.882.607c-2.2-2.991-7.288-5.981-18.126,2.294Z"/><path fill="url(#c)" d="M136.331,170.321a161.648,161.648,0,0,0-14.648,30.012A1.247,1.247,0,0,0,123.021,202l13.412-1.821a1.245,1.245,0,0,1,1.362,1.589,297.094,297.094,0,0,0-8.214,37.264,1.249,1.249,0,0,0,1.255,1.447c7.53-.165,42.454-1.609,76.552-14.263a1.244,1.244,0,0,1,1.23,2.121,141.958,141.958,0,0,1-98.556,31.945,1.25,1.25,0,0,1-1.172-1.361,176.135,176.135,0,0,1,7.162-34.573,1.247,1.247,0,0,0-1.414-1.607l-23.552,4.416a1.243,1.243,0,0,1-1.432-1.554c2.05-7.267,11.52-33.911,44.9-56.966A1.249,1.249,0,0,1,136.331,170.321Z"/><path fill="#3c3c4f" d="M17.792,135.4c14.584,11.825,32.712,25.4,39.374,30.352-19.04,27.568-34.723,62.773-34.884,63.138a3.323,3.323,0,0,0,3.427,4.647,279.414,279.414,0,0,0,36.276-7.059c-17.069,37.529-22.95,76.56-23.011,76.974a3.324,3.324,0,0,0,3.442,3.8,549.138,549.138,0,0,0,92.67-12.242V321.42a3.323,3.323,0,0,0,1.482,2.767,6.34,6.34,0,0,0,3.124.3c28.893-12.085,64.7-30.874,76.434-37.129,2.453,13.308,2.82,30.814,2.824,31.009a3.324,3.324,0,0,0,5.775,2.181c23.377-25.534,40.51-62.373,41.228-63.929a3.311,3.311,0,0,0,.238-.725c3.063-14.932,4.4-40.811,4.671-46.765l42.825-47.4a3.413,3.413,0,0,0,.414-.57,72.082,72.082,0,0,0,9.331-28.551,3.324,3.324,0,0,0-3.18-3.536,226.323,226.323,0,0,0-30.9.99c-.036,0-.073.007-.109.012l-7.915,1.028,37.183-54.12a25.5,25.5,0,0,0,4.408-16.079l-1.157-17.314c.309-2.14,1.474-11.961-1.7-20.79a11.044,11.044,0,0,0-5.908-6.36,11.433,11.433,0,0,0-8.871-.219,32.3,32.3,0,0,0-13.636,9.364h0L232.717,66.216a18.387,18.387,0,0,1-9.375,2.882l-47.529,1.339a28.006,28.006,0,0,0-12.593,3.41L139.607,86.769a48.225,48.225,0,0,1-26.884,5.746,387.554,387.554,0,0,0-58.486-.278,3.323,3.323,0,0,0-2.127,5.571L65.048,111.74c-20.561,6.712-46.217,17.911-46.5,18.033a3.324,3.324,0,0,0-.76,5.627ZM288.7,50.555c3.411-20.38,11.27-25.082,19.027-28.151a5.159,5.159,0,0,1,3.687.095,4.8,4.8,0,0,1,2.389,2.554c2.328,6.468,1.8,13.939,1.486,16.724A33.42,33.42,0,0,1,306,47.152c-.083.029-.166.06-.246.095a73.261,73.261,0,0,1-15.718,4.621C289.524,51.96,288.615,51.064,288.7,50.555ZM72.02,116.519a3.325,3.325,0,0,0,1.481-5.446L61.735,98.4a407.224,407.224,0,0,1,50.484.742A54.908,54.908,0,0,0,142.8,92.6l23.614-12.922a21.308,21.308,0,0,1,9.588-2.6l47.529-1.339a25.041,25.041,0,0,0,12.824-3.962c.031-.02.061-.039.09-.06l48.389-33.363a72.739,72.739,0,0,0-2.689,11.1,7.791,7.791,0,0,0,9.071,8.953,80.166,80.166,0,0,0,17.073-5.016,39.655,39.655,0,0,0,7.227-3.591l.772,11.546a18.821,18.821,0,0,1-3.254,11.869l-45.959,66.894a3.324,3.324,0,1,0,5.479,3.765l3.718-5.412,13.775-1.789A225.592,225.592,0,0,1,316.34,135.6a68.859,68.859,0,0,1-7.827,21.937l-43.386,48.019-14.889,16.48a3.324,3.324,0,0,0,4.933,4.457l8.6-9.519c-.634,10.255-1.905,26.669-4.015,37.2-1.646,3.487-15.686,32.684-34.507,55.611-.443-7.8-1.427-19.448-3.557-28.236a3.324,3.324,0,0,0-4.817-2.138c-.427.232-41.312,22.39-75.141,36.984V290.805a3.325,3.325,0,0,0-4.153-3.22c-.4.1-39.353,10.008-91.35,12.823,2.088-11.544,9.232-46.02,24.848-77.593a3.324,3.324,0,0,0-3.934-4.658,295.176,295.176,0,0,1-36.275,7.985c5.338-11.321,18.556-38.1,33.584-59.2a3.325,3.325,0,0,0-.736-4.605c-.217-.159-20.2-14.893-37.436-28.636C35.714,129.709,56.421,121.2,72.02,116.519Z"/><path fill="#3c3c4f" d="M121.423,205.57l12.289-1.669a314.942,314.942,0,0,0-7.647,36.088,3.324,3.324,0,0,0,3.285,3.834c1.825,0,45.128-.187,83.013-16.5a3.325,3.325,0,0,0-2.63-6.107c-30.178,13-64.953,15.412-76.465,15.86a273.429,273.429,0,0,1,8.259-36.123,3.325,3.325,0,0,0-3.606-4.331L125.529,198.3c7.128-24.084,15.866-30.2,16.11-30.36a3.324,3.324,0,0,0-3.494-5.656c-1.238.753-12.334,8.248-20.386,39.151a3.323,3.323,0,0,0,3.664,4.132Z"/></svg>